<svg xmlns="http://www.w3.org/2000/svg" version="1.1" xmlns:xlink="http://www.w3.org/1999/xlink" width="512" height="512"><svg class="ionicon" viewBox="0 0 512 512" version="1.1" id="SvgjsSvg1140" sodipodi:docname="cube-outline.svg" inkscape:version="1.4.2 (ebf0e940d0, 2025-05-08)" xmlns:inkscape="http://www.inkscape.org/namespaces/inkscape" xmlns:sodipodi="http://sodipodi.sourceforge.net/DTD/sodipodi-0.dtd" xmlns="http://www.w3.org/2000/svg" xmlns:svg="http://www.w3.org/2000/svg">
  <defs id="SvgjsDefs1139"></defs>
  <sodipodi:namedview id="SvgjsSodipodi:namedview1138" pagecolor="#ffffff" bordercolor="#000000" borderopacity="0.25" inkscape:showpageshadow="2" inkscape:pageopacity="0.0" inkscape:pagecheckerboard="0" inkscape:deskcolor="#d1d1d1" inkscape:zoom="1.4777427" inkscape:cx="350.19629" inkscape:cy="271.35983" inkscape:window-width="2560" inkscape:window-height="1283" inkscape:window-x="0" inkscape:window-y="0" inkscape:window-maximized="1" inkscape:current-layer="svg2"></sodipodi:namedview>
  <path style="fill:#fac863;fill-opacity:1" d="M 70.340187,155.51402 256.957,55.028038 450.7514,157.42804 l 0.4785,208.62804 -189.96635,102.4 L 66.033645,362.70654 Z" id="SvgjsPath1137" sodipodi:nodetypes="ccccccc"></path>
  <path d="M448 341.37V170.61A32 32 0 00432.11 143l-152-88.46a47.94 47.94 0 00-48.24 0L79.89 143A32 32 0 0064 170.61v170.76A32 32 0 0079.89 369l152 88.46a48 48 0 0048.24 0l152-88.46A32 32 0 00448 341.37z" fill="none" stroke="currentColor" stroke-linecap="round" stroke-linejoin="round" stroke-width="32" id="SvgjsPath1136"></path>
  <path fill="none" stroke="currentColor" stroke-linecap="round" stroke-linejoin="round" stroke-width="32" d="M69 153.99l187 110 187-110M256 463.99v-200" id="SvgjsPath1135"></path>
</svg><style>@media (prefers-color-scheme: light) { :root { filter: none; } }
@media (prefers-color-scheme: dark) { :root { filter: none; } }
</style></svg>